# Blender 4.4.3
# www.blender.org
o Cube
v -0.213191 -0.073985 -0.135833
v -0.213191 0.070686 -0.135833
v 0.175784 -0.175784 -0.087202
v 0.175784 0.083117 -0.087202
v -0.648525 -0.073985 -0.135833
v -0.648525 0.070686 -0.135833
v 0.000000 -0.086416 -0.161612
v 0.000000 0.083117 -0.161612
v 0.260156 -0.489781 -0.087202
v 0.196211 -0.531409 -0.161612
v -0.175784 -0.175784 0.000000
v -0.175784 0.175784 0.000000
v 0.175784 -0.175784 0.000000
v 0.175784 0.175784 0.000000
v -0.685932 -0.175784 0.000000
v -0.685932 0.175784 0.000000
v 0.000000 0.175784 0.000000
v 0.000000 -0.175784 0.000000
v 0.260156 -0.489781 0.000000
v 0.196211 -0.532704 0.000000
v -0.213191 -0.073985 0.135833
v -0.213191 0.070686 0.135833
v 0.175784 -0.175784 0.087202
v 0.175784 0.083117 0.087202
v -0.648525 -0.073985 0.135833
v -0.648525 0.070686 0.135833
v 0.000000 -0.086416 0.161612
v 0.000000 0.083117 0.161612
v 0.260156 -0.489781 0.087202
v 0.196211 -0.531409 0.161612
vn -0.0000 -0.0000 -1.0000
vn 0.3898 -0.0000 -0.9209
vn 0.4686 0.2066 -0.8589
vn -0.9641 -0.0000 -0.2655
vn -0.0000 0.7909 -0.6119
vn -0.1200 -0.0000 -0.9928
vn -0.8763 -0.4817 -0.0039
vn 0.9657 0.2595 -0.0000
vn 0.5510 -0.8345 -0.0067
vn -0.1167 -0.8099 -0.5748
vn -0.0000 0.6853 -0.7283
vn -0.0000 -0.8002 -0.5997
vn -0.0000 0.8675 -0.4974
vn 1.0000 -0.0000 -0.0000
vn -0.0000 -0.0000 1.0000
vn 0.3898 -0.0000 0.9209
vn 0.4686 0.2066 0.8589
vn -0.9641 -0.0000 0.2655
vn -0.0000 0.7909 0.6119
vn -0.1200 -0.0000 0.9928
vn -0.8930 -0.3938 0.2177
vn 0.5510 -0.8345 0.0067
vn -0.1167 -0.8099 0.5748
vn 0.2060 0.8489 0.4868
vn -0.0000 -0.8002 0.5997
vn -0.1177 0.8008 0.5872
vn 0.6914 0.1858 -0.6981
vn -0.8930 -0.3938 -0.2177
vn 0.5573 -0.8303 -0.0000
vn -0.0000 -0.8751 -0.4839
vn 0.2060 0.8489 -0.4868
vn -0.1177 0.8008 -0.5872
vn 0.6914 0.1858 0.6981
vn -0.8763 -0.4817 0.0039
vn -0.0000 -0.8751 0.4839
vn -0.0000 0.6853 0.7283
vn -0.0000 0.8675 0.4974
vt 0.301753 0.496165
vt 0.390292 0.039169
vt 0.390292 0.493606
vt 0.272338 0.718602
vt 0.439039 0.900053
vt 0.280590 0.904633
vt -0.000000 0.931294
vt 0.827132 0.857248
vt 0.973947 0.608527
vt 0.973947 0.755731
vt 0.569519 -0.000000
vt 0.569519 0.532534
vt 0.827132 0.084469
vt 1.000000 0.499521
vt 0.834652 0.494690
vt 0.569520 0.363919
vt 0.660567 0.700475
vt 0.569519 0.700475
vt 0.740979 0.732828
vt 0.660567 0.823877
vt 0.661315 0.655133
vt 0.660567 0.000000
vt 0.819768 0.211942
vt 0.678804 0.179254
vt 0.569519 0.716032
vt 0.569519 0.899530
vt 0.798398 0.655133
vt 0.660567 0.557451
vt 0.376093 0.715603
vt 0.569520 0.095923
vt 0.660567 0.363919
vt 0.827132 0.499521
vt 1.000000 -0.000000
vt 0.301753 0.041728
vt 0.088423 0.998261
vt 0.740979 0.823875
vt 0.827132 0.059228
vt 0.660567 0.000000
s 0
f 1/1/1 6/2/1 2/3/1
f 7/4/2 4/5/2 3/6/2
f 3/6/3 10/7/3 7/4/3
f 15/8/4 6/9/4 5/10/4
f 2/3/5 16/11/5 12/12/5
f 2/3/6 7/4/6 1/1/6
f 18/13/7 10/14/7 20/15/7
f 3/16/8 19/17/8 9/18/8
f 9/19/9 20/20/9 10/21/9
f 7/22/10 11/23/10 1/24/10
f 4/5/11 17/25/11 14/26/11
f 1/24/12 15/27/12 5/28/12
f 8/29/13 12/12/13 17/25/13
f 4/30/14 13/31/14 3/16/14
f 26/2/15 21/1/15 22/3/15
f 27/4/16 24/5/16 28/29/16
f 30/7/17 23/6/17 27/4/17
f 15/8/18 26/9/18 16/32/18
f 16/11/19 22/3/19 12/12/19
f 27/4/20 22/3/20 21/1/20
f 18/13/21 30/14/21 27/33/21
f 23/16/8 19/17/8 13/31/8
f 20/20/22 29/19/22 30/21/22
f 11/23/23 27/22/23 21/24/23
f 24/5/24 17/25/24 28/29/24
f 25/28/25 11/23/25 21/24/25
f 28/29/26 12/12/26 22/3/26
f 13/31/14 24/30/14 23/16/14
f 1/1/1 5/34/1 6/2/1
f 7/4/2 8/29/2 4/5/2
f 3/6/27 9/35/27 10/7/27
f 15/8/4 16/32/4 6/9/4
f 2/3/5 6/2/5 16/11/5
f 2/3/6 8/29/6 7/4/6
f 18/13/28 7/33/28 10/14/28
f 3/16/8 13/31/8 19/17/8
f 9/19/29 19/36/29 20/20/29
f 7/22/30 18/37/30 11/23/30
f 4/5/31 8/29/31 17/25/31
f 1/24/12 11/23/12 15/27/12
f 8/29/32 2/3/32 12/12/32
f 4/30/14 14/38/14 13/31/14
f 26/2/15 25/34/15 21/1/15
f 27/4/16 23/6/16 24/5/16
f 30/7/33 29/35/33 23/6/33
f 15/8/18 25/10/18 26/9/18
f 16/11/19 26/2/19 22/3/19
f 27/4/20 28/29/20 22/3/20
f 18/13/34 20/15/34 30/14/34
f 23/16/8 29/18/8 19/17/8
f 20/20/29 19/36/29 29/19/29
f 11/23/35 18/37/35 27/22/35
f 24/5/36 14/26/36 17/25/36
f 25/28/25 15/27/25 11/23/25
f 28/29/37 17/25/37 12/12/37
f 13/31/14 14/38/14 24/30/14
