# Blender 4.4.3
# www.blender.org
o RevolverModel
v 0.088488 0.115248 0.379946
v 0.028514 0.185911 0.306013
v 0.120015 -0.161237 -0.336481
v 0.119993 -0.598472 -0.528570
v 0.109467 0.061340 -0.411281
v 0.030204 -0.153687 0.262369
v 0.110392 0.050558 -0.321767
v 0.071414 0.114396 0.789137
v -0.088488 0.115248 0.379946
v -0.028514 0.185911 0.306013
v 0.000000 0.218484 -0.251229
v -0.120015 -0.161237 -0.336481
v 0.000000 0.239501 0.604751
v -0.005794 -0.588667 -0.600429
v -0.004873 -0.629543 -0.382126
v -0.119993 -0.598472 -0.528570
v -0.109467 0.061340 -0.411281
v -0.030204 -0.153687 0.262369
v -0.110392 0.050558 -0.321767
v 0.000000 0.239501 0.761877
v 0.000000 -0.412229 -0.358919
v 0.000000 -0.412229 -0.178876
v -0.071414 0.114396 0.789137
v -0.006111 0.042326 0.789256
v 0.000000 0.177035 0.604751
v 0.000000 -0.261385 -0.191048
v 0.000000 0.102270 -0.458036
v 0.000000 0.052138 -0.387864
v 0.000000 0.042170 0.681857
v 0.000000 0.181964 0.298971
v 0.000000 -0.471976 -0.578816
v 0.000000 -0.029371 0.336107
v 0.000000 -0.283915 -0.324874
v 0.000000 0.190084 0.789342
v 0.000000 0.191578 0.761633
v 0.000000 -0.510099 -0.361504
v 0.000000 0.046683 -0.342800
v 0.000000 -0.161618 0.257572
v 0.000000 0.053735 0.378550
v 0.046659 -0.126495 0.205467
v 0.110360 -0.076567 -0.117084
v 0.096188 -0.126495 -0.117084
v 0.096166 0.047913 0.205467
v 0.075615 0.126495 0.205467
v 0.093934 0.099163 0.205467
v 0.065754 0.126495 -0.117084
v 0.104003 0.069428 -0.117084
v -0.046659 -0.126495 0.205467
v -0.096166 0.047913 0.205467
v -0.110360 -0.076567 -0.117084
v -0.096188 -0.126495 -0.117084
v -0.075615 0.126495 0.205467
v -0.093934 0.099163 0.205467
v -0.065754 0.126495 -0.117084
v -0.104003 0.069428 -0.117084
vn 0.9989 0.0457 -0.0048
vn 0.9517 -0.2701 0.1461
vn 0.2166 -0.9530 0.2119
vn 0.7631 0.6463 -0.0013
vn 0.8304 0.5566 -0.0254
vn 0.1499 0.4650 -0.8725
vn 0.7450 0.6663 0.0325
vn -0.1321 0.9910 -0.0206
vn 0.9978 0.0268 -0.0610
vn 0.9987 0.0435 0.0272
vn -0.0025 -0.5106 0.8598
vn 0.0022 -0.0007 1.0000
vn 0.7269 0.6857 0.0370
vn 0.7825 -0.0995 0.6147
vn 0.2892 -0.4354 0.8525
vn 0.0286 -0.9825 -0.1841
vn -0.1527 0.9861 0.0655
vn 0.7299 -0.6830 -0.0260
vn -0.0576 0.9911 0.1200
vn 0.0559 0.8124 0.5804
vn 0.5311 0.1744 -0.8292
vn 0.7155 -0.6890 0.1160
vn -0.9989 0.0457 -0.0048
vn -0.9517 -0.2701 0.1461
vn -0.2166 -0.9530 0.2119
vn -0.7631 0.6463 -0.0013
vn -0.8304 0.5566 -0.0254
vn -0.1499 0.4650 -0.8725
vn -0.7450 0.6663 0.0325
vn 0.1321 0.9910 -0.0206
vn -0.9978 0.0268 -0.0610
vn -0.9987 0.0435 0.0272
vn 0.0025 -0.5106 0.8598
vn -0.0024 -0.0005 1.0000
vn -1.0000 -0.0000 -0.0000
vn -0.7269 0.6857 0.0370
vn -0.7825 -0.0995 0.6147
vn -0.2892 -0.4354 0.8525
vn -0.0313 -0.9825 -0.1838
vn 0.1527 0.9861 0.0655
vn -0.7299 -0.6830 -0.0260
vn 0.0576 0.9911 0.1200
vn -0.0559 0.8124 0.5804
vn -0.5311 0.1744 -0.8292
vn -0.7155 -0.6890 0.1160
vn -0.0000 -0.0000 1.0000
vn -0.0000 -0.0000 -1.0000
vn -0.0000 1.0000 -0.0000
vn -0.0000 -1.0000 -0.0000
vn 0.7269 0.6858 0.0370
vn 0.7679 -0.1393 0.6252
vn 0.4470 -0.3598 0.8190
vn 0.5704 -0.8211 0.0221
vn 0.6804 -0.7318 0.0398
vn 0.4387 0.1641 -0.8835
vn 0.4994 0.1337 -0.8560
vn -0.7269 0.6858 0.0370
vn -0.4470 -0.3598 0.8190
vn -0.7915 -0.0725 0.6068
vn -0.7404 -0.6709 -0.0411
vn -0.5704 -0.8211 0.0221
vn -0.5349 0.1795 -0.8256
vn -0.4387 0.1641 -0.8835
vt 0.210321 0.232559
vt 0.066140 0.244527
vt 0.094418 0.293808
vt 0.364351 0.565771
vt 0.209529 0.217849
vt 0.332829 0.539817
vt 0.240597 0.217702
vt 0.351410 0.479679
vt 0.221808 0.222282
vt 0.342041 0.551455
vt 0.318840 0.611476
vt 0.287107 0.241114
vt 0.000500 0.422579
vt 0.133050 0.635017
vt 0.076448 0.477013
vt 0.110185 0.315509
vt 0.110185 0.414447
vt 0.061905 0.393418
vt 0.224427 0.686468
vt 0.333067 0.972243
vt 0.214558 0.755626
vt 0.200714 0.679322
vt 0.338935 0.919097
vt 0.186820 0.691127
vt 0.195644 0.230128
vt 0.357632 -0.003108
vt 0.061297 0.259540
vt 0.071165 0.301559
vt 0.194455 0.388627
vt 0.187068 0.240310
vt 0.211188 0.724629
vt 0.205314 0.606678
vt 0.176372 0.619434
vt 0.086578 0.326819
vt 0.083445 0.244796
vt 0.099951 0.249729
vt 0.791320 0.823414
vt 0.850439 0.820852
vt 0.850439 0.882039
vt 0.359423 0.925030
vt 0.331130 0.973405
vt 0.222489 0.687631
vt 0.599358 0.775800
vt 0.670391 0.839516
vt 0.622228 0.661684
vt 0.134181 0.409543
vt 0.669780 0.757818
vt 0.607063 0.685129
vt 0.669780 0.673106
vt 0.335314 0.521038
vt 0.217504 0.223571
vt 0.349251 0.511218
vt 0.186653 0.707069
vt 0.264703 0.739810
vt 0.349761 0.911470
vt 0.059377 0.434870
vt 0.111126 0.373693
vt 0.120805 0.400163
vt 0.040702 0.382103
vt 0.094097 0.324674
vt 0.320476 0.040429
vt 0.244003 0.047775
vt 0.106828 0.262313
vt 0.173174 0.246621
vt 0.286078 0.291182
vt 0.256155 0.210804
vt 0.198440 0.222996
vt 0.091333 0.288024
vt 0.059862 0.240558
vt 0.346138 0.572615
vt 0.319518 0.545804
vt 0.256972 0.207402
vt 0.365772 0.484319
vt 0.265075 0.211783
vt 0.339689 0.538460
vt 0.366056 0.572640
vt 0.291442 0.245962
vt 0.335733 0.486756
vt 0.023646 0.366178
vt 0.177851 0.686578
vt 0.249106 0.702686
vt 0.363176 0.934856
vt 0.218226 0.673472
vt 0.196070 0.212822
vt 0.063898 0.229572
vt 0.358365 0.000135
vt 0.254532 0.702686
vt 0.213953 0.599582
vt 0.240871 0.585862
vt 0.215618 0.369895
vt 0.138937 0.408977
vt 0.067330 0.249729
vt 0.792356 0.880531
vt 0.616740 0.952778
vt 0.595109 0.860077
vt 0.616740 0.859930
vt 0.921658 0.798871
vt 0.991146 0.897661
vt 0.908046 0.897996
vt 0.368602 0.934856
vt 0.304723 0.947933
vt 0.183276 0.686578
vt 0.669277 0.850866
vt 0.587317 0.769209
vt 0.592961 0.634439
vt 0.038611 0.409543
vt 0.087953 0.377217
vt 0.589344 0.741895
vt 0.366055 0.507249
vt 0.213748 0.646164
vt 0.285433 0.900189
vt 0.202608 0.727426
vt 0.190665 0.387759
vt 0.170891 0.335386
vt 0.283775 0.024464
vt 0.125756 0.262427
vt 0.232716 0.044723
vt 0.169784 0.233108
vt 0.274856 0.287906
vt 0.367811 0.560693
vt 0.665164 0.360480
vt 0.700770 0.254564
vt 0.574074 0.226734
vt 0.586381 0.340411
vt 0.477563 0.429523
vt 0.618358 0.459019
vt 0.534237 0.439650
vt 0.441380 0.275194
vt 0.473575 0.439650
vt 0.614129 0.459604
vt 0.702334 0.301756
vt 0.620282 0.301756
vt 0.227775 0.584217
vt 0.233649 0.702168
vt 0.216916 0.366166
vt 0.246990 0.353455
vt 0.103761 0.463817
vt 0.064085 0.343941
vt 0.179951 0.730884
vt 0.146131 0.628697
vt 0.112009 0.424965
vt 0.366884 0.940275
vt 0.587625 0.836674
vt 0.656383 0.596404
vt 0.308056 0.935701
vt 0.232768 0.679784
vt 0.158188 0.280526
vt 0.269921 0.003561
vt 0.367232 0.574281
vt 0.238132 0.358428
vt 0.240871 0.585862
vt 0.182457 0.255345
vt 0.236011 0.347897
vt 0.268016 0.333304
vt 0.320405 0.493746
vt 0.586697 0.952768
vt 0.986883 0.791499
vt 0.313450 0.963143
vt 0.669277 0.568296
vt 0.587310 0.840661
vt 0.176749 0.664546
vt 0.335270 0.874698
vt 0.255921 0.001772
vt 0.161138 0.271243
vt 0.242248 0.209641
vt 0.542922 0.235576
vt 0.542922 0.355605
vt 0.574074 0.364447
vt 0.700770 0.336616
vt 0.665164 0.230700
vt 0.635411 0.447590
vt 0.635411 0.353233
vt 0.618358 0.341803
vt 0.477563 0.371299
vt 0.586381 0.460412
vt 0.566433 0.275194
vt 0.708486 0.459604
s 0
f 3/1/1 5/2/1 7/3/1
f 6/4/2 3/5/2 40/6/2
f 38/7/3 26/8/3 6/9/3
f 2/10/4 1/11/4 11/12/4
f 11/13/5 44/14/5 46/15/5
f 11/16/6 7/17/6 37/18/6
f 2/19/7 8/20/7 1/21/7
f 30/22/8 35/23/8 2/24/8
f 3/25/9 4/26/9 5/27/9
f 7/28/10 41/29/10 3/30/10
f 1/31/10 43/32/10 45/33/10
f 32/34/11 38/35/11 6/36/11
f 24/37/12 8/38/12 34/39/12
f 35/40/13 8/41/13 2/42/13
f 36/43/14 4/44/14 33/45/14
f 1/46/15 32/34/15 6/36/15
f 15/47/16 14/48/16 4/49/16
f 2/50/17 11/51/17 30/52/17
f 8/53/18 29/54/18 39/55/18
f 7/56/19 28/57/19 37/58/19
f 5/59/20 27/60/20 28/57/20
f 4/61/21 31/62/21 27/63/21
f 3/64/22 26/65/22 33/66/22
f 12/67/23 19/68/23 17/69/23
f 12/67/24 18/70/24 48/71/24
f 38/7/25 18/72/25 26/8/25
f 10/73/26 11/74/26 9/75/26
f 9/76/27 11/77/27 52/78/27
f 11/16/28 37/18/28 19/79/28
f 10/80/29 9/81/29 23/82/29
f 30/22/30 10/83/30 35/23/30
f 12/84/31 17/85/31 16/86/31
f 9/87/32 53/88/32 49/89/32
f 19/68/32 50/90/32 55/91/32
f 32/34/33 18/92/33 38/35/33
f 24/37/34 34/39/34 23/93/34
f 13/94/35 35/95/35 20/96/35
f 33/97/35 22/98/35 26/99/35
f 23/100/36 35/101/36 10/102/36
f 16/103/37 36/104/37 33/105/37
f 9/106/38 32/34/38 39/107/38
f 15/47/39 16/108/39 14/48/39
f 10/109/40 30/52/40 11/51/40
f 23/110/41 39/111/41 29/112/41
f 19/113/42 28/57/42 17/114/42
f 17/114/43 28/57/43 27/60/43
f 16/115/44 27/116/44 31/117/44
f 12/118/45 26/119/45 18/120/45
f 47/121/46 54/122/46 50/123/46
f 43/124/47 48/125/47 53/126/47
f 40/127/48 51/128/48 48/129/48
f 44/130/49 54/131/49 46/132/49
f 43/133/2 1/134/2 6/4/2
f 3/5/2 41/135/2 42/136/2
f 40/6/2 43/133/2 6/4/2
f 3/5/2 42/136/2 40/6/2
f 46/15/5 47/137/5 7/138/5
f 1/139/5 45/140/5 44/14/5
f 46/15/5 7/138/5 11/13/5
f 11/13/5 1/139/5 44/14/5
f 7/28/10 47/141/10 41/29/10
f 35/40/50 34/142/50 8/41/50
f 36/43/51 15/143/51 4/44/51
f 4/44/52 3/144/52 33/45/52
f 1/46/15 39/107/15 32/34/15
f 39/55/53 1/145/53 8/53/53
f 8/53/54 24/146/54 29/54/54
f 7/56/19 5/59/19 28/57/19
f 27/63/55 5/147/55 4/61/55
f 4/61/56 14/148/56 31/62/56
f 3/64/22 6/149/22 26/65/22
f 51/150/24 50/90/24 12/67/24
f 18/70/24 9/87/24 49/151/24
f 48/71/24 51/150/24 12/67/24
f 18/70/24 49/151/24 48/71/24
f 11/77/27 19/152/27 55/153/27
f 11/77/27 55/153/27 54/154/27
f 52/78/27 53/155/27 9/76/27
f 11/77/27 54/154/27 52/78/27
f 19/68/32 12/67/32 50/90/32
f 13/94/35 25/156/35 35/95/35
f 33/97/35 21/157/35 22/98/35
f 23/100/57 34/158/57 35/101/57
f 33/105/58 12/159/58 16/103/58
f 16/103/59 15/160/59 36/104/59
f 9/106/38 18/92/38 32/34/38
f 29/112/60 24/161/60 23/110/60
f 23/110/61 9/162/61 39/111/61
f 19/113/42 37/58/42 28/57/42
f 31/117/62 14/163/62 16/115/62
f 16/115/63 17/164/63 27/116/63
f 12/118/45 33/165/45 26/119/45
f 50/123/46 51/166/46 42/167/46
f 42/167/46 41/168/46 47/121/46
f 47/121/46 46/169/46 54/122/46
f 54/122/46 55/170/46 50/123/46
f 50/123/46 42/167/46 47/121/46
f 53/126/47 52/171/47 44/172/47
f 44/172/47 45/173/47 43/124/47
f 43/124/47 40/174/47 48/125/47
f 48/125/47 49/175/47 53/126/47
f 53/126/47 44/172/47 43/124/47
f 40/127/48 42/176/48 51/128/48
f 44/130/49 52/177/49 54/131/49
